<svg xmlns="http://www.w3.org/2000/svg" xmlns:xlink="http://www.w3.org/1999/xlink" version="1.1" x="0px" y="0px" viewBox="0 0 100 125" enable-background="new 0 0 100 100" xml:space="preserve"><g><path d="M34.316,14.826v82.689h43.707V14.826H34.316z M75.648,95.14H36.691V17.2h38.957V95.14z"/><polygon points="21.978,20.04 21.978,23.459 24.817,20.618 24.817,91.721 21.978,88.881 21.978,92.3 26.005,96.327 30.031,92.3    30.031,88.881 27.192,91.721 27.192,20.618 30.031,23.459 30.031,20.04 26.005,16.013  "/><polygon points="42.95,10.539 40.11,7.7 72.23,7.7 69.39,10.539 72.81,10.539 76.836,6.513 72.81,2.486 69.39,2.486 72.23,5.325    40.11,5.325 42.95,2.486 39.531,2.486 35.504,6.513 39.531,10.539  "/></g><text x="0" y="115" fill="#000000" font-size="5px" font-weight="bold" font-family="'Helvetica Neue', Helvetica, Arial-Unicode, Arial, Sans-serif">Created by Bakunetsu Kaito</text><text x="0" y="120" fill="#000000" font-size="5px" font-weight="bold" font-family="'Helvetica Neue', Helvetica, Arial-Unicode, Arial, Sans-serif">from the Noun Project</text></svg>