<svg xmlns="http://www.w3.org/2000/svg" xmlns:xlink="http://www.w3.org/1999/xlink" viewBox="0 0 84 105" version="1.1" x="0px" y="0px"><title>ShoppingCart4</title><desc>Created with Sketch.</desc><g stroke="none" stroke-width="1" fill="none" fill-rule="evenodd"><g fill="#000000"><path d="M55.53206,21.3745939 C56.3092034,20.5896596 57.5755177,20.5833438 58.360452,21.3604872 C59.1453863,22.1376306 59.1517021,23.4039448 58.3745587,24.1888792 L48.4244339,34.2387544 C47.6445483,35.0264584 46.3727756,35.0296299 45.588971,34.2458253 L35.5390958,24.1959501 C34.7580472,23.4149015 34.7580472,22.1485715 35.5390958,21.367523 C36.3201444,20.5864744 37.5864743,20.5864744 38.3675229,21.367523 L44.9999997,27.9999998 L44.9999997,11 C44.9999997,9.8954305 45.8954302,9 46.9999997,9 C48.1045692,9 48.9999997,9.8954305 48.9999997,11 L48.9999997,27.9781186 L55.53206,21.3745939 Z M64.5162334,50.0589035 L57.3788092,50.0589037 C57.0914091,50.0200601 56.7980472,50 56.5,50 C56.2019526,50 55.9085906,50.0200601 55.6211903,50.0589038 L37.3788145,50.0589044 C37.0914126,50.0200603 36.798049,50 36.5,50 C36.2019508,50 35.908587,50.0200603 35.6211851,50.0589045 L30.5352541,50.0589047 L29.6827725,47 L63.0023012,47 C66.1193359,47 69.1586256,44.6559757 69.9520004,41.6411517 L73.9341491,26.5089866 C74.2152547,25.4407856 73.5771877,24.3469565 72.5089867,24.0658509 C71.4407856,23.7847454 70.3469565,24.4228124 70.065851,25.4910134 L66.0837022,40.6231785 C65.7526699,41.8811011 64.3018924,43 63.0023012,43 L28.5680184,43 L22.4265826,20.9630835 C22.2180383,20.2147773 21.5950508,19.654921 20.828798,19.5272122 L8.82879797,17.5272122 C7.73925733,17.345622 6.70880226,18.0816614 6.52721215,19.171202 C6.34562205,20.2607427 7.08166138,21.2911977 8.17120203,21.4727878 L18.9113176,23.2628071 L27.0734174,52.5369165 C27.314436,53.401748 28.1022118,54 29,54 L30.4981633,54 C30.1772281,54.7695921 30,55.6140991 30,56.5 C30,60.0898509 32.9101491,63 36.5,63 C40.0898509,63 43,60.0898509 43,56.5 C43,55.6140991 42.8227719,54.7695921 42.5018367,54 L50.4981633,54 L50.4981633,54 C50.1772281,54.7695921 50,55.6140991 50,56.5 C50,60.0898509 52.9101491,63 56.5,63 C60.0898509,63 63,60.0898509 63,56.5 C63,55.6140991 62.8227719,54.7695921 62.5018367,54 L65,54 C66.1045695,54 67,53.1045695 67,52 C67,50.8954305 66.1045695,50 65,50 C64.8331866,50 64.6711431,50.0204224 64.5162334,50.0589035 L64.5162334,50.0589035 Z M54,56.5 C54,55.1192881 55.1192881,54 56.5,54 C57.8807119,54 59,55.1192881 59,56.5 C59,57.8807119 57.8807119,59 56.5,59 C55.1192881,59 54,57.8807119 54,56.5 L54,56.5 Z M34,56.5 C34,55.1192881 35.1192881,54 36.5,54 C37.8807119,54 39,55.1192881 39,56.5 C39,57.8807119 37.8807119,59 36.5,59 C35.1192881,59 34,57.8807119 34,56.5 L34,56.5 Z"/></g></g><text x="0" y="99" fill="#000000" font-size="5px" font-weight="bold" font-family="'Helvetica Neue', Helvetica, Arial-Unicode, Arial, Sans-serif">Created by Milan Gladiš</text><text x="0" y="104" fill="#000000" font-size="5px" font-weight="bold" font-family="'Helvetica Neue', Helvetica, Arial-Unicode, Arial, Sans-serif">from the Noun Project</text></svg>