<?xml version="1.0" encoding="utf-8"?>
<!-- Generator: Adobe Illustrator 22.0.1, SVG Export Plug-In . SVG Version: 6.00 Build 0)  -->
<svg version="1.1" id="Layer_1" xmlns="http://www.w3.org/2000/svg" xmlns:xlink="http://www.w3.org/1999/xlink" x="0px" y="0px"
	 viewBox="0 0 100 125" style="enable-background:new 0 0 100 125;" xml:space="preserve">
<g>
	<path d="M89.6,39.6h-17c2.5-3.6,3.9-8,3.9-12.4c0-12-9.8-21.8-21.8-21.8S33,15.2,33,27.2c0,4.5,1.4,8.8,3.9,12.4H15.4l-6.9,6.9
		v12.1h-5v3h5v1h-2c-1.7,0-3,1.3-3,3v9c0,1.7,1.3,3,3,3h2v1h-5v3h5v2v11h3v-11h13v5h13v-5h5v5h33v-5h14.1l6.9-6.9V46.5L89.6,39.6z
		 M36,27.2c0-10.3,8.4-18.8,18.8-18.8s18.8,8.4,18.8,18.8c0,4.6-1.7,9-4.7,12.4h-2.3c0.8-0.7,1.5-1.5,2.1-2.4l-2.4-1.8
		c-0.5,0.7-1.1,1.4-1.8,2l2,2.1H40.7C37.6,36.2,36,31.8,36,27.2z M6.5,65.6h2v9h-2V65.6z M27.5,83.6h2v2h-2V83.6z M34.5,85.6h-2v-2
		h2V85.6z M45.5,83.6h2v2h-2V83.6z M67.5,83.6v2h-2v-2H67.5z M62.5,85.6h-2v-2h2V85.6z M57.5,85.6h-2v-2h2V85.6z M52.5,85.6h-2v-2h2
		V85.6z M72.5,85.6h-2v-2h2V85.6z M93.5,75.5l-5.1,5.1H75.5h-33h-5h-13h-13v-3v-2.1V62.6V47.7l5.1-5.1h53.3l0.1,0.1
		c0,0,0.1-0.1,0.1-0.1h18.3l5.1,5.1V75.5z"/>
	<path d="M34,44.6c-9.1,0-16.5,7.4-16.5,16.5S24.9,77.6,34,77.6s16.5-7.4,16.5-16.5S43.1,44.6,34,44.6z M46.6,56.2l-7.8,2.1
		c-0.2-0.4-0.5-0.7-0.8-1l4.1-7C44,51.8,45.6,53.8,46.6,56.2z M47.5,61.1c0,1.9-0.4,3.8-1.2,5.5l-7-4.1c0.1-0.4,0.2-0.8,0.2-1.3
		l7.8-2.1C47.4,59.7,47.5,60.4,47.5,61.1z M20.5,61.1c0-1.9,0.4-3.7,1.1-5.3l7,4.1c-0.1,0.4-0.2,0.8-0.2,1.3c0,0,0,0,0,0l-7.8,2.1
		C20.6,62.5,20.5,61.8,20.5,61.1z M31.5,61.1c0-1.4,1.1-2.5,2.5-2.5s2.5,1.1,2.5,2.5s-1.1,2.5-2.5,2.5S31.5,62.5,31.5,61.1z
		 M39.4,48.7l-4.1,7c-0.4-0.1-0.9-0.2-1.3-0.2l-2.1-7.8c0.7-0.1,1.4-0.2,2.1-0.2C35.9,47.6,37.8,48,39.4,48.7z M29,48.5l2.1,7.8
		c-0.4,0.2-0.7,0.5-1,0.8l-7-4C24.6,51.1,26.6,49.5,29,48.5z M21.5,66.1l7.9-2.1c0.2,0.3,0.5,0.7,0.7,1L26,72
		C24,70.5,22.4,68.5,21.5,66.1z M28.6,73.5l4.1-7c0.4,0.1,0.8,0.2,1.2,0.2l2.1,7.8c-0.7,0.1-1.4,0.2-2.1,0.2
		C32.1,74.6,30.3,74.2,28.6,73.5z M39,73.6l-2.1-7.8c0.3-0.2,0.7-0.4,1-0.7l7,4.1C43.3,71.1,41.3,72.7,39,73.6z"/>
	<path d="M75.6,44.6c-9.1,0-16.5,7.4-16.5,16.5s7.4,16.5,16.5,16.5s16.5-7.4,16.5-16.5S84.7,44.6,75.6,44.6z M88.2,56.3l-7.8,2.1
		c-0.2-0.3-0.4-0.6-0.6-0.8l4.1-7.1C85.8,52,87.3,54,88.2,56.3z M89.1,61.1c0,1.9-0.4,3.7-1.1,5.3l-7.1-4.1c0.1-0.3,0.1-0.6,0.1-1
		l7.9-2.1C89,59.8,89.1,60.4,89.1,61.1z M73.1,61.1c0-1.4,1.1-2.5,2.5-2.5s2.5,1.1,2.5,2.5s-1.1,2.5-2.5,2.5S73.1,62.5,73.1,61.1z
		 M81.3,48.9l-4,7c-0.4-0.1-0.8-0.2-1.3-0.3l-2.2-7.9c0.6-0.1,1.1-0.1,1.7-0.1C77.6,47.6,79.6,48.1,81.3,48.9z M70.9,48.4l2.1,7.8
		c-0.4,0.2-0.9,0.5-1.2,0.9l-7-4.1C66.3,50.9,68.5,49.3,70.9,48.4z M63.3,55.6l7,4c-0.1,0.5-0.2,1-0.2,1.5c0,0,0,0.1,0,0.1l-7.8,2.1
		c-0.1-0.7-0.2-1.5-0.2-2.3C62.1,59.1,62.5,57.2,63.3,55.6z M63.1,66.2l7.9-2.1c0.3,0.4,0.6,0.8,1,1.1l-4,7
		C65.8,70.7,64.1,68.6,63.1,66.2z M70.5,73.6l4.1-7.1c0.3,0.1,0.6,0.1,0.9,0.1c0.1,0,0.2,0,0.3,0l2.1,7.8c-0.8,0.1-1.6,0.2-2.4,0.2
		C73.8,74.6,72.1,74.2,70.5,73.6z M80.9,73.5l-2.2-7.9c0.3-0.2,0.5-0.4,0.8-0.6l7,4C85.1,70.9,83.1,72.5,80.9,73.5z"/>
	<path d="M42.4,20l-2.6-1.5c-0.5,1-1,2-1.4,3l2.8,1C41.6,21.6,41.9,20.8,42.4,20z"/>
	<path d="M40.5,27.1c0-0.7,0-1.3,0.1-2l-3-0.4c-0.1,0.8-0.2,1.6-0.2,2.4c0,0.3,0,0.6,0,0.9l3-0.2C40.5,27.5,40.5,27.3,40.5,27.1z"/>
	<path d="M54.7,12.9c0.5,0,0.9,0,1.4,0.1l0.3-3c-0.6-0.1-1.1-0.1-1.7-0.1c-0.5,0-1.1,0-1.6,0.1l0.3,3C53.8,12.9,54.2,12.9,54.7,12.9
		z"/>
	<path d="M40.9,30.5L38,31.2c0.3,1.1,0.6,2.1,1.1,3.1l2.7-1.3C41.4,32.2,41.1,31.3,40.9,30.5z"/>
	<path d="M68.9,27.1c0,0.3,0,0.5,0,0.8l3,0.2c0-0.3,0-0.6,0-1c0-0.8-0.1-1.6-0.2-2.3l-3,0.4C68.9,25.8,68.9,26.4,68.9,27.1z"/>
	<path d="M68.1,22.5l2.8-1c-0.3-1-0.8-2-1.3-3L67,20C67.5,20.8,67.9,21.6,68.1,22.5z"/>
	<path d="M67.6,33.1l2.7,1.3c0.5-1,0.8-2,1.1-3.1l-2.9-0.7C68.2,31.4,67.9,32.3,67.6,33.1z"/>
	<path d="M58.7,13.4c0.9,0.3,1.7,0.6,2.5,1l1.4-2.7c-1-0.5-2-0.9-3-1.2L58.7,13.4z"/>
	<path d="M65.5,17.8l2.3-2c-0.7-0.8-1.5-1.6-2.4-2.3l-1.9,2.3C64.2,16.5,64.9,17.1,65.5,17.8z"/>
	<path d="M40.7,37.1c0.6,0.9,1.4,1.7,2.2,2.5l2.1-2.2c-0.7-0.6-1.3-1.3-1.8-2L40.7,37.1z"/>
	<path d="M41.7,15.8l2.3,2c0.6-0.7,1.3-1.3,2-1.9l-1.9-2.4C43.2,14.2,42.4,15,41.7,15.8z"/>
	<path d="M50.7,13.4l-0.8-2.9c-1,0.3-2.1,0.7-3,1.2l1.4,2.7C49,14,49.8,13.7,50.7,13.4z"/>
	<path d="M61.1,22.8c0-2.1-1.2-3.9-2.9-4.8v-2.8h-3v2.2h-1.7v-2h-3v2h-3v3h3v13h-3v3h3v3h3v-3h1v3h3v-3.3c2.1-0.8,3.6-2.8,3.6-5.1
		c0-1.6-0.7-3-1.8-4C60.4,25.8,61.1,24.3,61.1,22.8z M53.5,20.3h2.1c1.4,0,2.5,1.1,2.5,2.5s-1.1,2.5-2.5,2.5h-2.1V20.3z M55.6,33.3
		h-2.1v-4.9h2.1c1.4,0,2.5,1.1,2.5,2.5S57,33.3,55.6,33.3z"/>
</g>
</svg>
