<?xml version="1.0" encoding="utf-8"?>
<!-- Generator: Adobe Illustrator 22.0.1, SVG Export Plug-In . SVG Version: 6.00 Build 0)  -->
<svg version="1.1" xmlns="http://www.w3.org/2000/svg" xmlns:xlink="http://www.w3.org/1999/xlink" x="0px" y="0px"
	 viewBox="0 0 100 99.7" style="enable-background:new 0 0 100 99.7;" xml:space="preserve">
<style type="text/css">
	.st0{fill:#E034E0;}
</style>
<g id="Layer_2">
</g>
<g id="Layer_1">
	<g>
		<path class="st0" d="M69.8,2.5H30.2c-15,0-27.1,12.1-27.1,27.1v22.9c0,15,12.1,27.1,27.1,27.1h2.4c0.7,0,1.3,0.3,1.7,0.8
			l10.6,14.3c1.2,1.6,3.1,2.7,5.1,2.8c2.1,0.1,4-0.9,5.3-2.6L66,80.4c0.4-0.5,1-0.8,1.7-0.8h2.4c15,0,27.1-12.1,27.1-27.1V29.6
			C96.9,14.6,84.8,2.5,69.8,2.5z M90.1,52.5c0,11.2-9.1,20.3-20.3,20.3h-5c-1.2,0-2.3,0.6-3,1.5L50,90.4L38.1,74.3
			c-0.7-0.9-1.8-1.5-3-1.5h-5C19,72.8,9.9,63.7,9.9,52.5V29.6C9.9,18.4,19,9.3,30.2,9.3h39.7c11.2,0,20.3,9.1,20.3,20.3L90.1,52.5
			L90.1,52.5z"/>
		<path class="st0" d="M60.2,40.6v-0.2c3-1.3,5-4.4,5-8.1c0-6.2-3.5-10.3-10.4-10.9v-5.5h-4.9v5.4h-3.6v-5.4h-4.9v5.4h-7.1v6.4h4.9
			v27.7h-4.9v6.4h7.1v5.4h4.9v-5.4h3.6v5.4h4.9v-5.5c8.1-0.6,11.5-5,11.5-11.6C66.3,45.3,64.1,42.2,60.2,40.6z M46.4,27.6h6.2
			c3.6,0,5.3,2,5.3,5.2c0,3.3-1.7,5.2-5.3,5.2h-6.2V27.6z M52,55.4h-5.6V44.1h6c4.2,0,6.5,1.4,6.5,5.7S56.6,55.4,52,55.4z"/>
	</g>
</g>
</svg>
